<?xml version="1.0" encoding="UTF-8" standalone="no"?>
<!DOCTYPE svg PUBLIC "-//W3C//DTD SVG 1.1//EN"
 "http://www.w3.org/Graphics/SVG/1.1/DTD/svg11.dtd">
<!-- Generated by graphviz version 2.38.0 (20140413.2041)
 -->
<!-- Title: g Pages: 1 -->
<svg width="360pt" height="317pt"
 viewBox="0.00 0.00 360.00 316.70" xmlns="http://www.w3.org/2000/svg" xmlns:xlink="http://www.w3.org/1999/xlink">
<g id="graph0" class="graph" transform="scale(0.641439 0.641439) rotate(0) translate(4 489.74)">
<title>g</title>
<polygon fill="white" stroke="none" points="-4,4 -4,-489.74 557.238,-489.74 557.238,4 -4,4"/>
<!-- cc -->
<g id="node1" class="node"><title>cc</title>
<ellipse fill="none" stroke="black" cx="69.5438" cy="-467.74" rx="69.5877" ry="18"/>
<text text-anchor="middle" x="69.5438" y="-464.04" font-family="Arial" font-size="14.00">C++ sources</text>
</g>
<!-- linking -->
<g id="node10" class="node"><title>linking</title>
<polygon fill="none" stroke="black" points="270.544,-252 106.544,-252 106.544,-216 270.544,-216 270.544,-252"/>
<text text-anchor="middle" x="188.544" y="-230.3" font-family="Arial" font-size="14.00">Compiling and linking</text>
</g>
<!-- cc&#45;&gt;linking -->
<g id="edge3" class="edge"><title>cc&#45;&gt;linking</title>
<path fill="none" stroke="black" d="M69.3136,-449.588C69.6745,-415.702 74.6204,-339.045 109.544,-288 117.955,-275.707 130.244,-265.497 142.635,-257.429"/>
<polygon fill="black" stroke="black" points="144.489,-260.398 151.184,-252.186 140.83,-254.431 144.489,-260.398"/>
</g>
<!-- m_cc -->
<g id="node2" class="node"><title>m_cc</title>
<ellipse fill="none" stroke="black" cx="188.544" cy="-314.87" rx="69.5877" ry="18"/>
<text text-anchor="middle" x="188.544" y="-311.17" font-family="Arial" font-size="14.00">*_m.cc/h files</text>
</g>
<!-- m_cc&#45;&gt;linking -->
<g id="edge4" class="edge"><title>m_cc&#45;&gt;linking</title>
<path fill="none" stroke="black" d="M188.544,-296.756C188.544,-286.731 188.544,-273.836 188.544,-262.425"/>
<polygon fill="black" stroke="black" points="192.044,-262.08 188.544,-252.08 185.044,-262.08 192.044,-262.08"/>
</g>
<!-- msg -->
<g id="node3" class="node"><title>msg</title>
<ellipse fill="none" stroke="black" cx="209.544" cy="-467.74" rx="51.9908" ry="18"/>
<text text-anchor="middle" x="209.544" y="-464.04" font-family="Arial" font-size="14.00">MSG files</text>
</g>
<!-- opp_msgc -->
<g id="node9" class="node"><title>opp_msgc</title>
<polygon fill="none" stroke="black" points="240.044,-413.74 157.044,-413.74 157.044,-377.74 240.044,-377.74 240.044,-413.74"/>
<text text-anchor="middle" x="198.544" y="-392.04" font-family="Arial" font-size="14.00">opp_msgc</text>
</g>
<!-- msg&#45;&gt;opp_msgc -->
<g id="edge1" class="edge"><title>msg&#45;&gt;opp_msgc</title>
<path fill="none" stroke="black" d="M206.825,-449.437C205.613,-441.723 204.156,-432.453 202.804,-423.853"/>
<polygon fill="black" stroke="black" points="206.242,-423.18 201.232,-413.844 199.327,-424.267 206.242,-423.18"/>
</g>
<!-- ned -->
<g id="node4" class="node"><title>ned</title>
<ellipse fill="none" stroke="black" cx="356.544" cy="-162" rx="51.1914" ry="18"/>
<text text-anchor="middle" x="356.544" y="-158.3" font-family="Arial" font-size="14.00">NED files</text>
</g>
<!-- running -->
<g id="node11" class="node"><title>running</title>
<polygon fill="none" stroke="black" points="393.544,-108 319.544,-108 319.544,-72 393.544,-72 393.544,-108"/>
<text text-anchor="middle" x="356.544" y="-86.3" font-family="Arial" font-size="14.00">Running</text>
</g>
<!-- ned&#45;&gt;running -->
<g id="edge8" class="edge"><title>ned&#45;&gt;running</title>
<path fill="none" stroke="black" d="M356.544,-143.697C356.544,-135.983 356.544,-126.712 356.544,-118.112"/>
<polygon fill="black" stroke="black" points="360.044,-118.104 356.544,-108.104 353.044,-118.104 360.044,-118.104"/>
</g>
<!-- ini -->
<g id="node5" class="node"><title>ini</title>
<ellipse fill="none" stroke="black" cx="489.544" cy="-162" rx="63.8893" ry="18"/>
<text text-anchor="middle" x="489.544" y="-158.3" font-family="Arial" font-size="14.00">omnetpp.ini</text>
</g>
<!-- ini&#45;&gt;running -->
<g id="edge9" class="edge"><title>ini&#45;&gt;running</title>
<path fill="none" stroke="black" d="M460.685,-145.811C442.399,-136.187 418.452,-123.583 398.132,-112.889"/>
<polygon fill="black" stroke="black" points="399.564,-109.687 389.085,-108.127 396.304,-115.881 399.564,-109.687"/>
</g>
<!-- libs -->
<g id="node6" class="node"><title>libs</title>
<ellipse fill="none" stroke="black" cx="396.544" cy="-314.87" rx="120.831" ry="26.7407"/>
<text text-anchor="middle" x="396.544" y="-318.67" font-family="Arial" font-size="14.00">Simulation kernel and</text>
<text text-anchor="middle" x="396.544" y="-303.67" font-family="Arial" font-size="14.00">user interface libraries</text>
</g>
<!-- libs&#45;&gt;linking -->
<g id="edge5" class="edge"><title>libs&#45;&gt;linking</title>
<path fill="none" stroke="black" d="M337.218,-291.375C307.55,-280.125 271.895,-266.605 242.939,-255.626"/>
<polygon fill="black" stroke="black" points="243.985,-252.279 233.394,-252.006 241.504,-258.825 243.985,-252.279"/>
</g>
<!-- prog -->
<g id="node7" class="node"><title>prog</title>
<ellipse fill="none" stroke="black" cx="188.544" cy="-162" rx="98.5829" ry="18"/>
<text text-anchor="middle" x="188.544" y="-158.3" font-family="Arial" font-size="14.00">Simulation program</text>
</g>
<!-- prog&#45;&gt;running -->
<g id="edge7" class="edge"><title>prog&#45;&gt;running</title>
<path fill="none" stroke="black" d="M226.246,-145.291C250.975,-134.987 283.487,-121.44 309.849,-110.456"/>
<polygon fill="black" stroke="black" points="311.372,-113.613 319.257,-106.536 308.68,-107.152 311.372,-113.613"/>
</g>
<!-- result -->
<g id="node8" class="node"><title>result</title>
<ellipse fill="none" stroke="black" cx="356.544" cy="-18" rx="59.2899" ry="18"/>
<text text-anchor="middle" x="356.544" y="-14.3" font-family="Arial" font-size="14.00">Result files</text>
</g>
<!-- opp_msgc&#45;&gt;m_cc -->
<g id="edge2" class="edge"><title>opp_msgc&#45;&gt;m_cc</title>
<path fill="none" stroke="black" d="M196.374,-377.626C195.09,-367.498 193.434,-354.44 191.976,-342.942"/>
<polygon fill="black" stroke="black" points="195.44,-342.431 190.709,-332.95 188.495,-343.311 195.44,-342.431"/>
</g>
<!-- linking&#45;&gt;prog -->
<g id="edge6" class="edge"><title>linking&#45;&gt;prog</title>
<path fill="none" stroke="black" d="M188.544,-215.697C188.544,-207.983 188.544,-198.712 188.544,-190.112"/>
<polygon fill="black" stroke="black" points="192.044,-190.104 188.544,-180.104 185.044,-190.104 192.044,-190.104"/>
</g>
<!-- running&#45;&gt;result -->
<g id="edge10" class="edge"><title>running&#45;&gt;result</title>
<path fill="none" stroke="black" d="M356.544,-71.6966C356.544,-63.9827 356.544,-54.7125 356.544,-46.1124"/>
<polygon fill="black" stroke="black" points="360.044,-46.1043 356.544,-36.1043 353.044,-46.1044 360.044,-46.1043"/>
</g>
</g>
</svg>
