<?xml version="1.0" encoding="UTF-8" standalone="no"?>
<!DOCTYPE svg PUBLIC "-//W3C//DTD SVG 1.1//EN"
 "http://www.w3.org/Graphics/SVG/1.1/DTD/svg11.dtd">
<!-- Generated by graphviz version 2.38.0 (20140413.2041)
 -->
<!-- Title: g Pages: 1 -->
<svg width="252pt" height="204pt"
 viewBox="0.00 0.00 252.00 204.40" xmlns="http://www.w3.org/2000/svg" xmlns:xlink="http://www.w3.org/1999/xlink">
<g id="graph0" class="graph" transform="scale(0.737921 0.737921) rotate(0) translate(4 273)">
<title>g</title>
<polygon fill="white" stroke="none" points="-4,4 -4,-273 337.5,-273 337.5,4 -4,4"/>
<!-- cObject -->
<g id="node1" class="node"><title>cObject</title>
<polygon fill="none" stroke="black" points="213.5,-269 145.5,-269 145.5,-233 213.5,-233 213.5,-269"/>
<text text-anchor="middle" x="179.5" y="-247.3" font-family="Arial" font-size="14.00">cObject</text>
</g>
<!-- cNamedObject -->
<g id="node2" class="node"><title>cNamedObject</title>
<polygon fill="none" stroke="black" points="237.5,-196 121.5,-196 121.5,-160 237.5,-160 237.5,-196"/>
<text text-anchor="middle" x="179.5" y="-174.3" font-family="Arial" font-size="14.00">cNamedObject</text>
</g>
<!-- cObject&#45;&gt;cNamedObject -->
<g id="edge1" class="edge"><title>cObject&#45;&gt;cNamedObject</title>
<path fill="none" stroke="black" d="M179.5,-222.753C179.5,-213.765 179.5,-204.029 179.5,-196.029"/>
<polygon fill="black" stroke="black" points="176,-222.813 179.5,-232.813 183,-222.813 176,-222.813"/>
</g>
<!-- cOwnedObject -->
<g id="node3" class="node"><title>cOwnedObject</title>
<polygon fill="none" stroke="black" points="238,-123 121,-123 121,-87 238,-87 238,-123"/>
<text text-anchor="middle" x="179.5" y="-101.3" font-family="Arial" font-size="14.00">cOwnedObject</text>
</g>
<!-- cNamedObject&#45;&gt;cOwnedObject -->
<g id="edge2" class="edge"><title>cNamedObject&#45;&gt;cOwnedObject</title>
<path fill="none" stroke="black" d="M179.5,-149.753C179.5,-140.765 179.5,-131.029 179.5,-123.029"/>
<polygon fill="black" stroke="black" points="176,-149.813 179.5,-159.813 183,-149.813 176,-149.813"/>
</g>
<!-- cModule -->
<g id="node4" class="node"><title>cModule</title>
<polygon fill="none" stroke="black" points="73,-36 0,-36 0,-0 73,-0 73,-36"/>
<text text-anchor="middle" x="36.5" y="-14.3" font-family="Arial" font-size="14.00">cModule</text>
</g>
<!-- cOwnedObject&#45;&gt;cModule -->
<g id="edge3" class="edge"><title>cOwnedObject&#45;&gt;cModule</title>
<path fill="none" stroke="black" d="M141.748,-81.5599C117.834,-67.3452 87.3835,-49.2454 65.3951,-36.1754"/>
<polygon fill="black" stroke="black" points="140.177,-84.698 150.562,-86.799 143.754,-78.6808 140.177,-84.698"/>
<text text-anchor="middle" x="124.5" y="-57.8" font-family="Arial" font-size="14.00">...</text>
</g>
<!-- cMessage -->
<g id="node5" class="node"><title>cMessage</title>
<polygon fill="none" stroke="black" points="173.5,-36 91.5,-36 91.5,-0 173.5,-0 173.5,-36"/>
<text text-anchor="middle" x="132.5" y="-14.3" font-family="Arial" font-size="14.00">cMessage</text>
</g>
<!-- cOwnedObject&#45;&gt;cMessage -->
<g id="edge4" class="edge"><title>cOwnedObject&#45;&gt;cMessage</title>
<path fill="none" stroke="black" d="M165.076,-77.9141C157.576,-64.3505 148.619,-48.1515 141.997,-36.1754"/>
<polygon fill="black" stroke="black" points="162.087,-79.7413 169.989,-86.799 168.213,-76.3541 162.087,-79.7413"/>
<text text-anchor="middle" x="166.5" y="-57.8" font-family="Arial" font-size="14.00">...</text>
</g>
<!-- cQueue -->
<g id="node6" class="node"><title>cQueue</title>
<polygon fill="none" stroke="black" points="261,-36 192,-36 192,-0 261,-0 261,-36"/>
<text text-anchor="middle" x="226.5" y="-14.3" font-family="Arial" font-size="14.00">cQueue</text>
</g>
<!-- cOwnedObject&#45;&gt;cQueue -->
<g id="edge5" class="edge"><title>cOwnedObject&#45;&gt;cQueue</title>
<path fill="none" stroke="black" d="M193.924,-77.9141C201.424,-64.3505 210.381,-48.1515 217.003,-36.1754"/>
<polygon fill="black" stroke="black" points="190.787,-76.3541 189.011,-86.799 196.913,-79.7413 190.787,-76.3541"/>
</g>
<!-- others -->
<g id="node7" class="node"><title>others</title>
<polygon fill="none" stroke="black" points="333.5,-36 279.5,-36 279.5,-0 333.5,-0 333.5,-36"/>
<text text-anchor="middle" x="306.5" y="-14.3" font-family="Arial" font-size="14.00">...</text>
</g>
<!-- cOwnedObject&#45;&gt;others -->
<g id="edge6" class="edge"><title>cOwnedObject&#45;&gt;others</title>
<path fill="none" stroke="black" d="M213.591,-81.1833C234.743,-67.0266 261.482,-49.1303 280.838,-36.1754"/>
<polygon fill="black" stroke="black" points="211.564,-78.3282 205.2,-86.799 215.458,-84.1455 211.564,-78.3282"/>
</g>
</g>
</svg>
