<?xml version="1.0" encoding="UTF-8" standalone="no"?>
<!DOCTYPE svg PUBLIC "-//W3C//DTD SVG 1.1//EN"
 "http://www.w3.org/Graphics/SVG/1.1/DTD/svg11.dtd">
<!-- Generated by graphviz version 2.38.0 (20140413.2041)
 -->
<!-- Title: g Pages: 1 -->
<svg width="396pt" height="197pt"
 viewBox="0.00 0.00 396.00 196.58" xmlns="http://www.w3.org/2000/svg" xmlns:xlink="http://www.w3.org/1999/xlink">
<g id="graph0" class="graph" transform="scale(0.709677 0.709677) rotate(0) translate(4 273)">
<title>g</title>
<polygon fill="white" stroke="none" points="-4,4 -4,-273 554,-273 554,4 -4,4"/>
<!-- cObject -->
<g id="node1" class="node"><title>cObject</title>
<polygon fill="none" stroke="black" points="247.5,-269 179.5,-269 179.5,-233 247.5,-233 247.5,-269"/>
<text text-anchor="middle" x="213.5" y="-247.3" font-family="Arial" font-size="14.00">cObject</text>
</g>
<!-- cComponent -->
<g id="node2" class="node"><title>cComponent</title>
<polygon fill="none" stroke="black" points="265,-182 162,-182 162,-146 265,-146 265,-182"/>
<text text-anchor="middle" x="213.5" y="-160.3" font-family="Arial" font-size="14.00">cComponent</text>
</g>
<!-- cObject&#45;&gt;cComponent -->
<g id="edge1" class="edge"><title>cObject&#45;&gt;cComponent</title>
<path fill="none" stroke="black" d="M213.5,-222.734C213.5,-209.419 213.5,-193.806 213.5,-182.175"/>
<polygon fill="black" stroke="black" points="210,-222.799 213.5,-232.799 217,-222.799 210,-222.799"/>
<text text-anchor="middle" x="220.5" y="-203.8" font-family="Arial" font-size="14.00">...</text>
</g>
<!-- cModule -->
<g id="node3" class="node"><title>cModule</title>
<polygon fill="none" stroke="black" points="140,-109 67,-109 67,-73 140,-73 140,-109"/>
<text text-anchor="middle" x="103.5" y="-87.3" font-family="Arial" font-size="14.00">cModule</text>
</g>
<!-- cComponent&#45;&gt;cModule -->
<g id="edge2" class="edge"><title>cComponent&#45;&gt;cModule</title>
<path fill="none" stroke="black" d="M178.704,-140.541C162.951,-130.373 144.629,-118.547 130.014,-109.114"/>
<polygon fill="black" stroke="black" points="176.852,-143.511 187.152,-145.994 180.648,-137.63 176.852,-143.511"/>
</g>
<!-- cChannel -->
<g id="node4" class="node"><title>cChannel</title>
<polygon fill="none" stroke="black" points="325.5,-109 245.5,-109 245.5,-73 325.5,-73 325.5,-109"/>
<text text-anchor="middle" x="285.5" y="-87.3" font-family="Arial" font-size="14.00">cChannel</text>
</g>
<!-- cComponent&#45;&gt;cChannel -->
<g id="edge3" class="edge"><title>cComponent&#45;&gt;cChannel</title>
<path fill="none" stroke="black" d="M238.188,-138.655C248.078,-128.902 259.236,-117.899 268.231,-109.029"/>
<polygon fill="black" stroke="black" points="235.592,-136.299 230.929,-145.813 240.507,-141.284 235.592,-136.299"/>
</g>
<!-- cSimpleModule -->
<g id="node5" class="node"><title>cSimpleModule</title>
<polygon fill="none" stroke="black" points="119,-36 0,-36 0,-0 119,-0 119,-36"/>
<text text-anchor="middle" x="59.5" y="-14.3" font-family="Arial" font-size="14.00">cSimpleModule</text>
</g>
<!-- cModule&#45;&gt;cSimpleModule -->
<g id="edge4" class="edge"><title>cModule&#45;&gt;cSimpleModule</title>
<path fill="none" stroke="black" d="M87.5186,-64.2119C81.7035,-54.8284 75.2807,-44.4643 70.0531,-36.0288"/>
<polygon fill="black" stroke="black" points="84.6061,-66.1565 92.8488,-72.8129 90.5562,-62.4691 84.6061,-66.1565"/>
</g>
<!-- cIdealChannel -->
<g id="node6" class="node"><title>cIdealChannel</title>
<polygon fill="none" stroke="black" points="250,-36 137,-36 137,-0 250,-0 250,-36"/>
<text text-anchor="middle" x="193.5" y="-14.3" font-family="Arial" font-size="14.00">cIdealChannel</text>
</g>
<!-- cChannel&#45;&gt;cIdealChannel -->
<g id="edge5" class="edge"><title>cChannel&#45;&gt;cIdealChannel</title>
<path fill="none" stroke="black" d="M255.065,-66.5119C242.158,-56.5511 227.397,-45.16 215.566,-36.0288"/>
<polygon fill="black" stroke="black" points="253.174,-69.4741 263.229,-72.8129 257.451,-63.9324 253.174,-69.4741"/>
</g>
<!-- cDelayChannel -->
<g id="node7" class="node"><title>cDelayChannel</title>
<polygon fill="none" stroke="black" points="388.5,-36 268.5,-36 268.5,-0 388.5,-0 388.5,-36"/>
<text text-anchor="middle" x="328.5" y="-14.3" font-family="Arial" font-size="14.00">cDelayChannel</text>
</g>
<!-- cChannel&#45;&gt;cDelayChannel -->
<g id="edge6" class="edge"><title>cChannel&#45;&gt;cDelayChannel</title>
<path fill="none" stroke="black" d="M301.118,-64.2119C306.801,-54.8284 313.078,-44.4643 318.187,-36.0288"/>
<polygon fill="black" stroke="black" points="298.096,-62.4461 295.909,-72.8129 304.083,-66.0724 298.096,-62.4461"/>
</g>
<!-- cDatarateChannel -->
<g id="node8" class="node"><title>cDatarateChannel</title>
<polygon fill="none" stroke="black" points="550,-36 407,-36 407,-0 550,-0 550,-36"/>
<text text-anchor="middle" x="478.5" y="-14.3" font-family="Arial" font-size="14.00">cDatarateChannel</text>
</g>
<!-- cChannel&#45;&gt;cDatarateChannel -->
<g id="edge7" class="edge"><title>cChannel&#45;&gt;cDatarateChannel</title>
<path fill="none" stroke="black" d="M335.73,-71.5216C365.479,-60.5776 402.915,-46.806 431.988,-36.1108"/>
<polygon fill="black" stroke="black" points="334.136,-68.3787 325.959,-75.1161 336.553,-74.9482 334.136,-68.3787"/>
</g>
</g>
</svg>
