<?xml version="1.0" encoding="UTF-8" standalone="no"?>
<!DOCTYPE svg PUBLIC "-//W3C//DTD SVG 1.1//EN"
 "http://www.w3.org/Graphics/SVG/1.1/DTD/svg11.dtd">
<!-- Generated by graphviz version 2.38.0 (20140413.2041)
 -->
<!-- Title: g Pages: 1 -->
<svg width="562pt" height="260pt"
 viewBox="0.00 0.00 562.00 259.51" xmlns="http://www.w3.org/2000/svg" xmlns:xlink="http://www.w3.org/1999/xlink">
<g id="graph0" class="graph" transform="scale(0.796034 0.796034) rotate(0) translate(4 322)">
<title>g</title>
<polygon fill="white" stroke="none" points="-4,4 -4,-322 702,-322 702,4 -4,4"/>
<!-- cFigure -->
<g id="node1" class="node"><title>cFigure</title>
<polygon fill="none" stroke="black" points="138,-318 92,-318 92,-295 138,-295 138,-318"/>
<text text-anchor="middle" x="115" y="-304" font-family="Arial" font-size="10.00">cFigure</text>
</g>
<!-- cAbstractLineFigure -->
<g id="node2" class="node"><title>cAbstractLineFigure</title>
<polygon fill="none" stroke="black" points="168,-259 62,-259 62,-236 168,-236 168,-259"/>
<text text-anchor="middle" x="115" y="-245" font-family="Arial" font-size="10.00">cAbstractLineFigure</text>
</g>
<!-- cFigure&#45;&gt;cAbstractLineFigure -->
<g id="edge1" class="edge"><title>cFigure&#45;&gt;cAbstractLineFigure</title>
<path fill="none" stroke="black" d="M115,-284.632C115,-275.986 115,-266.327 115,-259.173"/>
<polygon fill="black" stroke="black" points="111.5,-284.779 115,-294.779 118.5,-284.779 111.5,-284.779"/>
</g>
<!-- cLineFigure -->
<g id="node3" class="node"><title>cLineFigure</title>
<polygon fill="none" stroke="black" points="66,-200 0,-200 0,-177 66,-177 66,-200"/>
<text text-anchor="middle" x="33" y="-186" font-family="Arial" font-size="10.00">cLineFigure</text>
</g>
<!-- cAbstractLineFigure&#45;&gt;cLineFigure -->
<g id="edge2" class="edge"><title>cAbstractLineFigure&#45;&gt;cLineFigure</title>
<path fill="none" stroke="black" d="M91.0544,-229.855C77.2724,-220.275 60.3617,-208.52 48.3544,-200.173"/>
<polygon fill="black" stroke="black" points="89.3676,-232.945 99.5764,-235.779 93.363,-227.197 89.3676,-232.945"/>
</g>
<!-- cArcFigure -->
<g id="node4" class="node"><title>cArcFigure</title>
<polygon fill="none" stroke="black" points="146,-200 84,-200 84,-177 146,-177 146,-200"/>
<text text-anchor="middle" x="115" y="-186" font-family="Arial" font-size="10.00">cArcFigure</text>
</g>
<!-- cAbstractLineFigure&#45;&gt;cArcFigure -->
<g id="edge3" class="edge"><title>cAbstractLineFigure&#45;&gt;cArcFigure</title>
<path fill="none" stroke="black" d="M115,-225.632C115,-216.986 115,-207.327 115,-200.173"/>
<polygon fill="black" stroke="black" points="111.5,-225.779 115,-235.779 118.5,-225.779 111.5,-225.779"/>
</g>
<!-- cPolylineFigure -->
<g id="node5" class="node"><title>cPolylineFigure</title>
<polygon fill="none" stroke="black" points="246,-200 164,-200 164,-177 246,-177 246,-200"/>
<text text-anchor="middle" x="205" y="-186" font-family="Arial" font-size="10.00">cPolylineFigure</text>
</g>
<!-- cAbstractLineFigure&#45;&gt;cPolylineFigure -->
<g id="edge4" class="edge"><title>cAbstractLineFigure&#45;&gt;cPolylineFigure</title>
<path fill="none" stroke="black" d="M140.421,-230.4C155.699,-220.724 174.718,-208.679 188.148,-200.173"/>
<polygon fill="black" stroke="black" points="138.504,-227.471 131.928,-235.779 142.249,-233.385 138.504,-227.471"/>
</g>
<!-- cFigure2 -->
<g id="node6" class="node"><title>cFigure2</title>
<polygon fill="none" stroke="black" points="562,-318 516,-318 516,-295 562,-295 562,-318"/>
<text text-anchor="middle" x="539" y="-304" font-family="Arial" font-size="10.00">cFigure</text>
</g>
<!-- cAbstractTextFigure -->
<g id="node7" class="node"><title>cAbstractTextFigure</title>
<polygon fill="none" stroke="black" points="437,-259 331,-259 331,-236 437,-236 437,-259"/>
<text text-anchor="middle" x="384" y="-245" font-family="Arial" font-size="10.00">cAbstractTextFigure</text>
</g>
<!-- cFigure2&#45;&gt;cAbstractTextFigure -->
<g id="edge5" class="edge"><title>cFigure2&#45;&gt;cAbstractTextFigure</title>
<path fill="none" stroke="black" d="M506.147,-293.419C478.416,-283.221 439.11,-268.766 412.643,-259.033"/>
<polygon fill="black" stroke="black" points="505.201,-296.8 515.795,-296.967 507.617,-290.23 505.201,-296.8"/>
</g>
<!-- cAbstractImageFigure -->
<g id="node10" class="node"><title>cAbstractImageFigure</title>
<polygon fill="none" stroke="black" points="597.5,-259 480.5,-259 480.5,-236 597.5,-236 597.5,-259"/>
<text text-anchor="middle" x="539" y="-245" font-family="Arial" font-size="10.00">cAbstractImageFigure</text>
</g>
<!-- cFigure2&#45;&gt;cAbstractImageFigure -->
<g id="edge8" class="edge"><title>cFigure2&#45;&gt;cAbstractImageFigure</title>
<path fill="none" stroke="black" d="M539,-284.632C539,-275.986 539,-266.327 539,-259.173"/>
<polygon fill="black" stroke="black" points="535.5,-284.779 539,-294.779 542.5,-284.779 535.5,-284.779"/>
</g>
<!-- cGroupFigure -->
<g id="node14" class="node"><title>cGroupFigure</title>
<polygon fill="none" stroke="black" points="692,-259 616,-259 616,-236 692,-236 692,-259"/>
<text text-anchor="middle" x="654" y="-245" font-family="Arial" font-size="10.00">cGroupFigure</text>
</g>
<!-- cFigure2&#45;&gt;cGroupFigure -->
<g id="edge12" class="edge"><title>cFigure2&#45;&gt;cGroupFigure</title>
<path fill="none" stroke="black" d="M569.366,-290.449C589.33,-280.554 614.955,-267.853 632.753,-259.031"/>
<polygon fill="black" stroke="black" points="567.767,-287.335 560.361,-294.912 570.875,-293.607 567.767,-287.335"/>
</g>
<!-- cTextFigure -->
<g id="node8" class="node"><title>cTextFigure</title>
<polygon fill="none" stroke="black" points="329.5,-200 264.5,-200 264.5,-177 329.5,-177 329.5,-200"/>
<text text-anchor="middle" x="297" y="-186" font-family="Arial" font-size="10.00">cTextFigure</text>
</g>
<!-- cAbstractTextFigure&#45;&gt;cTextFigure -->
<g id="edge6" class="edge"><title>cAbstractTextFigure&#45;&gt;cTextFigure</title>
<path fill="none" stroke="black" d="M359.011,-230.128C344.314,-220.499 326.151,-208.599 313.291,-200.173"/>
<polygon fill="black" stroke="black" points="357.353,-233.226 367.636,-235.779 361.189,-227.371 357.353,-233.226"/>
</g>
<!-- cLabelFigure -->
<g id="node9" class="node"><title>cLabelFigure</title>
<polygon fill="none" stroke="black" points="420,-200 348,-200 348,-177 420,-177 420,-200"/>
<text text-anchor="middle" x="384" y="-186" font-family="Arial" font-size="10.00">cLabelFigure</text>
</g>
<!-- cAbstractTextFigure&#45;&gt;cLabelFigure -->
<g id="edge7" class="edge"><title>cAbstractTextFigure&#45;&gt;cLabelFigure</title>
<path fill="none" stroke="black" d="M384,-225.632C384,-216.986 384,-207.327 384,-200.173"/>
<polygon fill="black" stroke="black" points="380.5,-225.779 384,-235.779 387.5,-225.779 380.5,-225.779"/>
</g>
<!-- cFigure3 -->
<g id="node15" class="node"><title>cFigure3</title>
<polygon fill="none" stroke="black" points="407,-141 361,-141 361,-118 407,-118 407,-141"/>
<text text-anchor="middle" x="384" y="-127" font-family="Arial" font-size="10.00">cFigure</text>
</g>
<!-- cLabelFigure&#45;&gt;cFigure3 -->
<!-- cImageFigure -->
<g id="node11" class="node"><title>cImageFigure</title>
<polygon fill="none" stroke="black" points="514,-200 438,-200 438,-177 514,-177 514,-200"/>
<text text-anchor="middle" x="476" y="-186" font-family="Arial" font-size="10.00">cImageFigure</text>
</g>
<!-- cAbstractImageFigure&#45;&gt;cImageFigure -->
<g id="edge9" class="edge"><title>cAbstractImageFigure&#45;&gt;cImageFigure</title>
<path fill="none" stroke="black" d="M519.689,-229.029C509.275,-219.606 496.758,-208.281 487.797,-200.173"/>
<polygon fill="black" stroke="black" points="517.387,-231.665 527.15,-235.779 522.083,-226.474 517.387,-231.665"/>
</g>
<!-- cIconFigure -->
<g id="node12" class="node"><title>cIconFigure</title>
<polygon fill="none" stroke="black" points="598,-200 532,-200 532,-177 598,-177 598,-200"/>
<text text-anchor="middle" x="565" y="-186" font-family="Arial" font-size="10.00">cIconFigure</text>
</g>
<!-- cAbstractImageFigure&#45;&gt;cIconFigure -->
<g id="edge10" class="edge"><title>cAbstractImageFigure&#45;&gt;cIconFigure</title>
<path fill="none" stroke="black" d="M548.126,-226.493C552.168,-217.632 556.759,-207.566 560.132,-200.173"/>
<polygon fill="black" stroke="black" points="544.856,-225.228 543.89,-235.779 551.225,-228.133 544.856,-225.228"/>
</g>
<!-- cPixmapFigure -->
<g id="node13" class="node"><title>cPixmapFigure</title>
<polygon fill="none" stroke="black" points="698,-200 616,-200 616,-177 698,-177 698,-200"/>
<text text-anchor="middle" x="657" y="-186" font-family="Arial" font-size="10.00">cPixmapFigure</text>
</g>
<!-- cAbstractImageFigure&#45;&gt;cPixmapFigure -->
<g id="edge11" class="edge"><title>cAbstractImageFigure&#45;&gt;cPixmapFigure</title>
<path fill="none" stroke="black" d="M570.159,-231.449C590.643,-221.554 616.936,-208.853 635.199,-200.031"/>
<polygon fill="black" stroke="black" points="568.4,-228.411 560.918,-235.912 571.445,-234.714 568.4,-228.411"/>
</g>
<!-- cAbstractShapeFigure -->
<g id="node16" class="node"><title>cAbstractShapeFigure</title>
<polygon fill="none" stroke="black" points="443,-82 325,-82 325,-59 443,-59 443,-82"/>
<text text-anchor="middle" x="384" y="-68" font-family="Arial" font-size="10.00">cAbstractShapeFigure</text>
</g>
<!-- cFigure3&#45;&gt;cAbstractShapeFigure -->
<g id="edge13" class="edge"><title>cFigure3&#45;&gt;cAbstractShapeFigure</title>
<path fill="none" stroke="black" d="M384,-107.632C384,-98.9857 384,-89.3273 384,-82.1732"/>
<polygon fill="black" stroke="black" points="380.5,-107.779 384,-117.779 387.5,-107.779 380.5,-107.779"/>
</g>
<!-- cRectangleFigure -->
<g id="node17" class="node"><title>cRectangleFigure</title>
<polygon fill="none" stroke="black" points="201.5,-23 108.5,-23 108.5,-0 201.5,-0 201.5,-23"/>
<text text-anchor="middle" x="155" y="-9" font-family="Arial" font-size="10.00">cRectangleFigure</text>
</g>
<!-- cAbstractShapeFigure&#45;&gt;cRectangleFigure -->
<g id="edge14" class="edge"><title>cAbstractShapeFigure&#45;&gt;cRectangleFigure</title>
<path fill="none" stroke="black" d="M331.993,-56.555C291.298,-46.4258 235.42,-32.5173 197.41,-23.0562"/>
<polygon fill="black" stroke="black" points="331.182,-59.9598 341.731,-58.9789 332.872,-53.1671 331.182,-59.9598"/>
</g>
<!-- cOvalFigure -->
<g id="node18" class="node"><title>cOvalFigure</title>
<polygon fill="none" stroke="black" points="286.5,-23 219.5,-23 219.5,-0 286.5,-0 286.5,-23"/>
<text text-anchor="middle" x="253" y="-9" font-family="Arial" font-size="10.00">cOvalFigure</text>
</g>
<!-- cAbstractShapeFigure&#45;&gt;cOvalFigure -->
<g id="edge15" class="edge"><title>cAbstractShapeFigure&#45;&gt;cOvalFigure</title>
<path fill="none" stroke="black" d="M350.331,-54.8502C327.462,-44.8995 297.753,-31.9725 277.203,-23.031"/>
<polygon fill="black" stroke="black" points="349.101,-58.1318 359.667,-58.9123 351.894,-51.7131 349.101,-58.1318"/>
</g>
<!-- cRingFigure -->
<g id="node19" class="node"><title>cRingFigure</title>
<polygon fill="none" stroke="black" points="371.5,-23 304.5,-23 304.5,-0 371.5,-0 371.5,-23"/>
<text text-anchor="middle" x="338" y="-9" font-family="Arial" font-size="10.00">cRingFigure</text>
</g>
<!-- cAbstractShapeFigure&#45;&gt;cRingFigure -->
<g id="edge16" class="edge"><title>cAbstractShapeFigure&#45;&gt;cRingFigure</title>
<path fill="none" stroke="black" d="M368.999,-50.9115C361.583,-41.7225 352.9,-30.9633 346.613,-23.1732"/>
<polygon fill="black" stroke="black" points="366.344,-53.1948 375.348,-58.7787 371.791,-48.7987 366.344,-53.1948"/>
</g>
<!-- cPieSliceFigure -->
<g id="node20" class="node"><title>cPieSliceFigure</title>
<polygon fill="none" stroke="black" points="472.5,-23 389.5,-23 389.5,-0 472.5,-0 472.5,-23"/>
<text text-anchor="middle" x="431" y="-9" font-family="Arial" font-size="10.00">cPieSliceFigure</text>
</g>
<!-- cAbstractShapeFigure&#45;&gt;cPieSliceFigure -->
<g id="edge17" class="edge"><title>cAbstractShapeFigure&#45;&gt;cPieSliceFigure</title>
<path fill="none" stroke="black" d="M399.327,-50.9115C406.904,-41.7225 415.776,-30.9633 422.199,-23.1732"/>
<polygon fill="black" stroke="black" points="396.502,-48.8367 392.84,-58.7787 401.903,-53.29 396.502,-48.8367"/>
</g>
<!-- cPolygonFigure -->
<g id="node21" class="node"><title>cPolygonFigure</title>
<polygon fill="none" stroke="black" points="575,-23 491,-23 491,-0 575,-0 575,-23"/>
<text text-anchor="middle" x="533" y="-9" font-family="Arial" font-size="10.00">cPolygonFigure</text>
</g>
<!-- cAbstractShapeFigure&#45;&gt;cPolygonFigure -->
<g id="edge18" class="edge"><title>cAbstractShapeFigure&#45;&gt;cPolygonFigure</title>
<path fill="none" stroke="black" d="M421.254,-55.2484C447.4,-45.2464 481.785,-32.0923 505.472,-23.031"/>
<polygon fill="black" stroke="black" points="419.766,-52.0703 411.677,-58.9123 422.267,-58.6082 419.766,-52.0703"/>
</g>
<!-- cPathFigure -->
<g id="node22" class="node"><title>cPathFigure</title>
<polygon fill="none" stroke="black" points="660.5,-23 593.5,-23 593.5,-0 660.5,-0 660.5,-23"/>
<text text-anchor="middle" x="627" y="-9" font-family="Arial" font-size="10.00">cPathFigure</text>
</g>
<!-- cAbstractShapeFigure&#45;&gt;cPathFigure -->
<g id="edge19" class="edge"><title>cAbstractShapeFigure&#45;&gt;cPathFigure</title>
<path fill="none" stroke="black" d="M439.967,-56.6619C480.09,-47.4157 535.409,-34.581 584,-23 586.99,-22.2874 590.096,-21.5411 593.207,-20.789"/>
<polygon fill="black" stroke="black" points="439.067,-53.2775 430.107,-58.9323 440.638,-60.099 439.067,-53.2775"/>
</g>
</g>
</svg>
