<?xml version="1.0" encoding="UTF-8" standalone="no"?>
<!DOCTYPE svg PUBLIC "-//W3C//DTD SVG 1.1//EN"
 "http://www.w3.org/Graphics/SVG/1.1/DTD/svg11.dtd">
<!-- Generated by graphviz version 2.38.0 (20140413.2041)
 -->
<!-- Title: g Pages: 1 -->
<svg width="180pt" height="260pt"
 viewBox="0.00 0.00 179.69 260.00" xmlns="http://www.w3.org/2000/svg" xmlns:xlink="http://www.w3.org/1999/xlink">
<g id="graph0" class="graph" transform="scale(1 1) rotate(0) translate(4 256)">
<title>g</title>
<polygon fill="white" stroke="none" points="-4,4 -4,-256 175.693,-256 175.693,4 -4,4"/>
<!-- node1 -->
<g id="node1" class="node"><title>node1</title>
<ellipse fill="none" stroke="black" cx="85.3466" cy="-234" rx="38.1938" ry="18"/>
<text text-anchor="middle" x="85.3466" y="-230.3" font-family="Arial" font-size="14.00">node1</text>
</g>
<!-- node2 -->
<g id="node2" class="node"><title>node2</title>
<ellipse fill="none" stroke="black" cx="38.3466" cy="-162" rx="38.1938" ry="18"/>
<text text-anchor="middle" x="38.3466" y="-158.3" font-family="Arial" font-size="14.00">node2</text>
</g>
<!-- node1&#45;&#45;node2 -->
<g id="edge1" class="edge"><title>node1&#45;&#45;node2</title>
<path fill="none" stroke="black" d="M74.2083,-216.411C66.7161,-205.252 56.8804,-190.604 49.405,-179.47"/>
</g>
<!-- node3 -->
<g id="node5" class="node"><title>node3</title>
<ellipse fill="none" stroke="black" cx="133.347" cy="-162" rx="38.1938" ry="18"/>
<text text-anchor="middle" x="133.347" y="-158.3" font-family="Arial" font-size="14.00">node3</text>
</g>
<!-- node1&#45;&#45;node3 -->
<g id="edge4" class="edge"><title>node1&#45;&#45;node3</title>
<path fill="none" stroke="black" d="M96.4794,-216.765C104.123,-205.618 114.239,-190.865 121.941,-179.633"/>
</g>
<!-- node4 -->
<g id="node3" class="node"><title>node4</title>
<ellipse fill="none" stroke="black" cx="38.3466" cy="-90" rx="38.1938" ry="18"/>
<text text-anchor="middle" x="38.3466" y="-86.3" font-family="Arial" font-size="14.00">node4</text>
</g>
<!-- node2&#45;&#45;node4 -->
<g id="edge2" class="edge"><title>node2&#45;&#45;node4</title>
<path fill="none" stroke="black" d="M38.3466,-143.697C38.3466,-132.846 38.3466,-118.917 38.3466,-108.104"/>
</g>
<!-- node5 -->
<g id="node6" class="node"><title>node5</title>
<ellipse fill="none" stroke="black" cx="133.347" cy="-90" rx="38.1938" ry="18"/>
<text text-anchor="middle" x="133.347" y="-86.3" font-family="Arial" font-size="14.00">node5</text>
</g>
<!-- node2&#45;&#45;node5 -->
<g id="edge7" class="edge"><title>node2&#45;&#45;node5</title>
<path fill="none" stroke="black" d="M58.0307,-146.496C74.335,-134.482 97.3904,-117.494 113.688,-105.485"/>
</g>
<!-- node6 -->
<g id="node4" class="node"><title>node6</title>
<ellipse fill="none" stroke="black" cx="85.3466" cy="-18" rx="38.1938" ry="18"/>
<text text-anchor="middle" x="85.3466" y="-14.3" font-family="Arial" font-size="14.00">node6</text>
</g>
<!-- node4&#45;&#45;node6 -->
<g id="edge3" class="edge"><title>node4&#45;&#45;node6</title>
<path fill="none" stroke="black" d="M49.4849,-72.411C56.9771,-61.2524 66.8128,-46.6036 74.2882,-35.4699"/>
</g>
<!-- node3&#45;&#45;node4 -->
<g id="edge8" class="edge"><title>node3&#45;&#45;node4</title>
<path fill="none" stroke="black" d="M113.663,-146.496C97.3582,-134.482 74.3028,-117.494 58.0054,-105.485"/>
</g>
<!-- node3&#45;&#45;node5 -->
<g id="edge5" class="edge"><title>node3&#45;&#45;node5</title>
<path fill="none" stroke="black" d="M133.347,-143.697C133.347,-132.846 133.347,-118.917 133.347,-108.104"/>
</g>
<!-- node5&#45;&#45;node6 -->
<g id="edge6" class="edge"><title>node5&#45;&#45;node6</title>
<path fill="none" stroke="black" d="M122.214,-72.7646C114.57,-61.6175 104.454,-46.865 96.7524,-35.6334"/>
</g>
</g>
</svg>
