<?xml version="1.0" encoding="UTF-8" standalone="no"?>
<!DOCTYPE svg PUBLIC "-//W3C//DTD SVG 1.1//EN"
 "http://www.w3.org/Graphics/SVG/1.1/DTD/svg11.dtd">
<!-- Generated by graphviz version 2.38.0 (20140413.2041)
 -->
<!-- Title: g Pages: 1 -->
<svg width="562pt" height="303pt"
 viewBox="0.00 0.00 562.00 303.05" xmlns="http://www.w3.org/2000/svg" xmlns:xlink="http://www.w3.org/1999/xlink">
<g id="graph0" class="graph" transform="scale(0.711392 0.711392) rotate(0) translate(4 422)">
<title>g</title>
<polygon fill="white" stroke="none" points="-4,4 -4,-422 786,-422 786,4 -4,4"/>
<!-- cIListener -->
<g id="node1" class="node"><title>cIListener</title>
<polygon fill="none" stroke="black" points="510,-418 426,-418 426,-382 510,-382 510,-418"/>
<text text-anchor="middle" x="468" y="-396.3" font-family="Arial" font-size="14.00">cIListener</text>
</g>
<!-- cResultListener -->
<g id="node2" class="node"><title>cResultListener</title>
<polygon fill="none" stroke="black" points="529,-346 407,-346 407,-310 529,-310 529,-346"/>
<text text-anchor="middle" x="468" y="-324.3" font-family="Arial" font-size="14.00">cResultListener</text>
</g>
<!-- cIListener&#45;&gt;cResultListener -->
<g id="edge1" class="edge"><title>cIListener&#45;&gt;cResultListener</title>
<path fill="none" stroke="black" d="M468,-371.665C468,-363.054 468,-353.791 468,-346.104"/>
<polygon fill="black" stroke="black" points="464.5,-371.697 468,-381.697 471.5,-371.697 464.5,-371.697"/>
</g>
<!-- cResultFilter -->
<g id="node3" class="node"><title>cResultFilter</title>
<polygon fill="none" stroke="black" points="369.5,-274 268.5,-274 268.5,-238 369.5,-238 369.5,-274"/>
<text text-anchor="middle" x="319" y="-252.3" font-family="Arial" font-size="14.00">cResultFilter</text>
</g>
<!-- cResultListener&#45;&gt;cResultFilter -->
<g id="edge2" class="edge"><title>cResultListener&#45;&gt;cResultFilter</title>
<path fill="none" stroke="black" d="M422.282,-305.522C400.781,-295.42 375.499,-283.543 355.331,-274.068"/>
<polygon fill="black" stroke="black" points="421.011,-308.792 431.55,-309.876 423.988,-302.456 421.011,-308.792"/>
</g>
<!-- cResultRecorder -->
<g id="node4" class="node"><title>cResultRecorder</title>
<polygon fill="none" stroke="black" points="611.5,-274 484.5,-274 484.5,-238 611.5,-238 611.5,-274"/>
<text text-anchor="middle" x="548" y="-252.3" font-family="Arial" font-size="14.00">cResultRecorder</text>
</g>
<!-- cResultListener&#45;&gt;cResultRecorder -->
<g id="edge3" class="edge"><title>cResultListener&#45;&gt;cResultRecorder</title>
<path fill="none" stroke="black" d="M495.391,-303.033C506.258,-293.524 518.509,-282.805 528.452,-274.104"/>
<polygon fill="black" stroke="black" points="492.996,-300.478 487.775,-309.697 497.606,-305.746 492.996,-300.478"/>
</g>
<!-- cNumericResultFilter -->
<g id="node5" class="node"><title>cNumericResultFilter</title>
<polygon fill="none" stroke="black" points="158,-201 1.42109e-14,-201 1.42109e-14,-165 158,-165 158,-201"/>
<text text-anchor="middle" x="79" y="-179.3" font-family="Arial" font-size="14.00">cNumericResultFilter</text>
</g>
<!-- cResultFilter&#45;&gt;cNumericResultFilter -->
<g id="edge4" class="edge"><title>cResultFilter&#45;&gt;cNumericResultFilter</title>
<path fill="none" stroke="black" d="M258.641,-237.144C221.274,-226.089 173.561,-211.974 136.701,-201.07"/>
<polygon fill="black" stroke="black" points="257.813,-240.549 268.395,-240.029 259.799,-233.836 257.813,-240.549"/>
</g>
<!-- cObjectResultFilter -->
<g id="node6" class="node"><title>cObjectResultFilter</title>
<polygon fill="none" stroke="black" points="322,-201 176,-201 176,-165 322,-165 322,-201"/>
<text text-anchor="middle" x="249" y="-179.3" font-family="Arial" font-size="14.00">cObjectResultFilter</text>
</g>
<!-- cResultFilter&#45;&gt;cObjectResultFilter -->
<g id="edge5" class="edge"><title>cResultFilter&#45;&gt;cObjectResultFilter</title>
<path fill="none" stroke="black" d="M294.998,-230.655C285.382,-220.902 274.534,-209.899 265.789,-201.029"/>
<polygon fill="black" stroke="black" points="292.542,-233.149 302.055,-237.813 297.527,-228.235 292.542,-233.149"/>
</g>
<!-- CountFilter,\n... -->
<g id="node8" class="node"><title>CountFilter,\n...</title>
<polygon fill="none" stroke="black" points="438,-202 340,-202 340,-164 438,-164 438,-202"/>
<text text-anchor="middle" x="389" y="-186.8" font-family="Arial" font-size="14.00">CountFilter,</text>
<text text-anchor="middle" x="389" y="-171.8" font-family="Arial" font-size="14.00">...</text>
</g>
<!-- cResultFilter&#45;&gt;CountFilter,\n... -->
<g id="edge7" class="edge"><title>cResultFilter&#45;&gt;CountFilter,\n...</title>
<path fill="none" stroke="black" d="M343.061,-230.596C352.306,-221.218 362.685,-210.691 371.234,-202.02"/>
<polygon fill="black" stroke="black" points="340.473,-228.235 335.945,-237.813 345.458,-233.149 340.473,-228.235"/>
</g>
<!-- cNumericResultRecorder -->
<g id="node7" class="node"><title>cNumericResultRecorder</title>
<polygon fill="none" stroke="black" points="640,-201 456,-201 456,-165 640,-165 640,-201"/>
<text text-anchor="middle" x="548" y="-179.3" font-family="Arial" font-size="14.00">cNumericResultRecorder</text>
</g>
<!-- cResultRecorder&#45;&gt;cNumericResultRecorder -->
<g id="edge6" class="edge"><title>cResultRecorder&#45;&gt;cNumericResultRecorder</title>
<path fill="none" stroke="black" d="M548,-227.753C548,-218.765 548,-209.029 548,-201.029"/>
<polygon fill="black" stroke="black" points="544.5,-227.813 548,-237.813 551.5,-227.813 544.5,-227.813"/>
</g>
<!-- CountRecorder,\n... -->
<g id="node11" class="node"><title>CountRecorder,\n...</title>
<polygon fill="none" stroke="black" points="782,-202 658,-202 658,-164 782,-164 782,-202"/>
<text text-anchor="middle" x="720" y="-186.8" font-family="Arial" font-size="14.00">CountRecorder,</text>
<text text-anchor="middle" x="720" y="-171.8" font-family="Arial" font-size="14.00">...</text>
</g>
<!-- cResultRecorder&#45;&gt;CountRecorder,\n... -->
<g id="edge10" class="edge"><title>cResultRecorder&#45;&gt;CountRecorder,\n...</title>
<path fill="none" stroke="black" d="M598.716,-234.065C623.295,-223.919 652.525,-211.853 676.131,-202.109"/>
<polygon fill="black" stroke="black" points="597.106,-230.943 589.198,-237.994 599.777,-237.413 597.106,-230.943"/>
</g>
<!-- SumFilter,\nMinFilter,\nMaxFilter,\nTimeAverageFilter,\n... -->
<g id="node9" class="node"><title>SumFilter,\nMinFilter,\nMaxFilter,\nTimeAverageFilter,\n...</title>
<polygon fill="none" stroke="black" points="152,-105.5 6,-105.5 6,-22.5 152,-22.5 152,-105.5"/>
<text text-anchor="middle" x="79" y="-90.3" font-family="Arial" font-size="14.00">SumFilter,</text>
<text text-anchor="middle" x="79" y="-75.3" font-family="Arial" font-size="14.00">MinFilter,</text>
<text text-anchor="middle" x="79" y="-60.3" font-family="Arial" font-size="14.00">MaxFilter,</text>
<text text-anchor="middle" x="79" y="-45.3" font-family="Arial" font-size="14.00">TimeAverageFilter,</text>
<text text-anchor="middle" x="79" y="-30.3" font-family="Arial" font-size="14.00">...</text>
</g>
<!-- cNumericResultFilter&#45;&gt;SumFilter,\nMinFilter,\nMaxFilter,\nTimeAverageFilter,\n... -->
<g id="edge8" class="edge"><title>cNumericResultFilter&#45;&gt;SumFilter,\nMinFilter,\nMaxFilter,\nTimeAverageFilter,\n...</title>
<path fill="none" stroke="black" d="M79,-154.67C79,-140.133 79,-121.967 79,-105.795"/>
<polygon fill="black" stroke="black" points="75.5001,-154.987 79,-164.987 82.5001,-154.987 75.5001,-154.987"/>
</g>
<!-- PacketBitsFilter,\nPacketBytesFilter,\n... -->
<g id="node10" class="node"><title>PacketBitsFilter,\nPacketBytesFilter,\n...</title>
<polygon fill="none" stroke="black" points="319,-90.5 179,-90.5 179,-37.5 319,-37.5 319,-90.5"/>
<text text-anchor="middle" x="249" y="-75.3" font-family="Arial" font-size="14.00">PacketBitsFilter,</text>
<text text-anchor="middle" x="249" y="-60.3" font-family="Arial" font-size="14.00">PacketBytesFilter,</text>
<text text-anchor="middle" x="249" y="-45.3" font-family="Arial" font-size="14.00">...</text>
</g>
<!-- cObjectResultFilter&#45;&gt;PacketBitsFilter,\nPacketBytesFilter,\n... -->
<g id="edge9" class="edge"><title>cObjectResultFilter&#45;&gt;PacketBitsFilter,\nPacketBytesFilter,\n...</title>
<path fill="none" stroke="black" d="M249,-154.723C249,-135.394 249,-109.633 249,-90.6739"/>
<polygon fill="black" stroke="black" points="245.5,-154.987 249,-164.987 252.5,-154.987 245.5,-154.987"/>
</g>
<!-- VectorRecorder,\nLastValueRecorder,\nHistogramRecorder,\nSumRecorder,\nMinRecorder,\nMaxRecorder,\nTimeAverageRecorder,\n... -->
<g id="node12" class="node"><title>VectorRecorder,\nLastValueRecorder,\nHistogramRecorder,\nSumRecorder,\nMinRecorder,\nMaxRecorder,\nTimeAverageRecorder,\n...</title>
<polygon fill="none" stroke="black" points="633.5,-128 462.5,-128 462.5,-0 633.5,-0 633.5,-128"/>
<text text-anchor="middle" x="548" y="-112.8" font-family="Arial" font-size="14.00">VectorRecorder,</text>
<text text-anchor="middle" x="548" y="-97.8" font-family="Arial" font-size="14.00">LastValueRecorder,</text>
<text text-anchor="middle" x="548" y="-82.8" font-family="Arial" font-size="14.00">HistogramRecorder,</text>
<text text-anchor="middle" x="548" y="-67.8" font-family="Arial" font-size="14.00">SumRecorder,</text>
<text text-anchor="middle" x="548" y="-52.8" font-family="Arial" font-size="14.00">MinRecorder,</text>
<text text-anchor="middle" x="548" y="-37.8" font-family="Arial" font-size="14.00">MaxRecorder,</text>
<text text-anchor="middle" x="548" y="-22.8" font-family="Arial" font-size="14.00">TimeAverageRecorder,</text>
<text text-anchor="middle" x="548" y="-7.8" font-family="Arial" font-size="14.00">...</text>
</g>
<!-- cNumericResultRecorder&#45;&gt;VectorRecorder,\nLastValueRecorder,\nHistogramRecorder,\nSumRecorder,\nMinRecorder,\nMaxRecorder,\nTimeAverageRecorder,\n... -->
<g id="edge11" class="edge"><title>cNumericResultRecorder&#45;&gt;VectorRecorder,\nLastValueRecorder,\nHistogramRecorder,\nSumRecorder,\nMinRecorder,\nMaxRecorder,\nTimeAverageRecorder,\n...</title>
<path fill="none" stroke="black" d="M548,-154.782C548,-146.723 548,-137.54 548,-128.197"/>
<polygon fill="black" stroke="black" points="544.5,-154.987 548,-164.987 551.5,-154.987 544.5,-154.987"/>
</g>
</g>
</svg>
