<?xml version="1.0" encoding="UTF-8" standalone="no"?>
<!DOCTYPE svg PUBLIC "-//W3C//DTD SVG 1.1//EN"
 "http://www.w3.org/Graphics/SVG/1.1/DTD/svg11.dtd">
<!-- Generated by graphviz version 2.38.0 (20140413.2041)
 -->
<!-- Title: g Pages: 1 -->
<svg width="468pt" height="81pt"
 viewBox="0.00 0.00 468.00 80.91" xmlns="http://www.w3.org/2000/svg" xmlns:xlink="http://www.w3.org/1999/xlink">
<g id="graph0" class="graph" transform="scale(0.697466 0.697466) rotate(0) translate(4 112)">
<title>g</title>
<polygon fill="white" stroke="none" points="-4,4 -4,-112 667,-112 667,4 -4,4"/>
<!-- cRandom -->
<g id="node1" class="node"><title>cRandom</title>
<polygon fill="none" stroke="black" points="406,-108 326,-108 326,-72 406,-72 406,-108"/>
<text text-anchor="middle" x="366" y="-86.3" font-family="Arial" font-size="14.00">cRandom</text>
</g>
<!-- cUniform -->
<g id="node2" class="node"><title>cUniform</title>
<polygon fill="none" stroke="black" points="78,-36 0,-36 0,-0 78,-0 78,-36"/>
<text text-anchor="middle" x="39" y="-14.3" font-family="Arial" font-size="14.00">cUniform</text>
</g>
<!-- cRandom&#45;&gt;cUniform -->
<g id="edge1" class="edge"><title>cRandom&#45;&gt;cUniform</title>
<path fill="none" stroke="black" d="M315.773,-81.8261C259.51,-73.2444 165.859,-57.3209 87,-36 84.0984,-35.2155 81.1209,-34.3395 78.1387,-33.4102"/>
<polygon fill="black" stroke="black" points="315.422,-85.3125 325.832,-83.3426 316.465,-78.3908 315.422,-85.3125"/>
</g>
<!-- cExponential -->
<g id="node3" class="node"><title>cExponential</title>
<polygon fill="none" stroke="black" points="201.5,-36 96.5,-36 96.5,-0 201.5,-0 201.5,-36"/>
<text text-anchor="middle" x="149" y="-14.3" font-family="Arial" font-size="14.00">cExponential</text>
</g>
<!-- cRandom&#45;&gt;cExponential -->
<g id="edge2" class="edge"><title>cRandom&#45;&gt;cExponential</title>
<path fill="none" stroke="black" d="M316.137,-72.9153C281.842,-61.8522 236.374,-47.185 201.52,-35.9419"/>
<polygon fill="black" stroke="black" points="315.354,-76.3402 325.946,-76.0793 317.503,-69.6783 315.354,-76.3402"/>
</g>
<!-- cNormal -->
<g id="node4" class="node"><title>cNormal</title>
<polygon fill="none" stroke="black" points="292.5,-36 219.5,-36 219.5,-0 292.5,-0 292.5,-36"/>
<text text-anchor="middle" x="256" y="-14.3" font-family="Arial" font-size="14.00">cNormal</text>
</g>
<!-- cRandom&#45;&gt;cNormal -->
<g id="edge3" class="edge"><title>cRandom&#45;&gt;cNormal</title>
<path fill="none" stroke="black" d="M330.347,-66.3119C314.969,-56.5258 297.278,-45.2681 283.012,-36.1898"/>
<polygon fill="black" stroke="black" points="328.775,-69.4601 339.091,-71.8761 332.533,-63.5545 328.775,-69.4601"/>
</g>
<!-- cTruncNormal -->
<g id="node5" class="node"><title>cTruncNormal</title>
<polygon fill="none" stroke="black" points="421,-36 311,-36 311,-0 421,-0 421,-36"/>
<text text-anchor="middle" x="366" y="-14.3" font-family="Arial" font-size="14.00">cTruncNormal</text>
</g>
<!-- cRandom&#45;&gt;cTruncNormal -->
<g id="edge4" class="edge"><title>cRandom&#45;&gt;cTruncNormal</title>
<path fill="none" stroke="black" d="M366,-61.6651C366,-53.0537 366,-43.7913 366,-36.1043"/>
<polygon fill="black" stroke="black" points="362.5,-61.6966 366,-71.6966 369.5,-61.6967 362.5,-61.6966"/>
</g>
<!-- cGamma -->
<g id="node6" class="node"><title>cGamma</title>
<polygon fill="none" stroke="black" points="516.5,-36 439.5,-36 439.5,-0 516.5,-0 516.5,-36"/>
<text text-anchor="middle" x="478" y="-14.3" font-family="Arial" font-size="14.00">cGamma</text>
</g>
<!-- cRandom&#45;&gt;cGamma -->
<g id="edge5" class="edge"><title>cRandom&#45;&gt;cGamma</title>
<path fill="none" stroke="black" d="M402.301,-66.3119C417.959,-56.5258 435.971,-45.2681 450.496,-36.1898"/>
<polygon fill="black" stroke="black" points="400.023,-63.608 393.398,-71.8761 403.733,-69.544 400.023,-63.608"/>
</g>
<!-- cBeta -->
<g id="node7" class="node"><title>cBeta</title>
<polygon fill="none" stroke="black" points="591,-36 535,-36 535,-0 591,-0 591,-36"/>
<text text-anchor="middle" x="563" y="-14.3" font-family="Arial" font-size="14.00">cBeta</text>
</g>
<!-- cRandom&#45;&gt;cBeta -->
<g id="edge6" class="edge"><title>cRandom&#45;&gt;cBeta</title>
<path fill="none" stroke="black" d="M416.169,-73.9526C447.958,-64.033 489.764,-50.2753 526,-36 528.894,-34.8599 531.886,-33.6095 534.857,-32.3204"/>
<polygon fill="black" stroke="black" points="414.736,-70.7323 406.22,-77.0342 416.807,-77.4189 414.736,-70.7323"/>
</g>
<!-- others -->
<g id="node8" class="node"><title>others</title>
<polygon fill="none" stroke="black" points="663,-36 609,-36 609,-0 663,-0 663,-36"/>
<text text-anchor="middle" x="636" y="-14.3" font-family="Arial" font-size="14.00">...</text>
</g>
<!-- cRandom&#45;&gt;others -->
<g id="edge7" class="edge"><title>cRandom&#45;&gt;others</title>
<path fill="none" stroke="black" d="M416.197,-80.9107C464.188,-72.4144 538.181,-57.31 600,-36 602.875,-35.0089 605.825,-33.8563 608.74,-32.627"/>
<polygon fill="black" stroke="black" points="415.319,-77.5107 406.068,-82.6741 416.52,-84.407 415.319,-77.5107"/>
</g>
</g>
</svg>
