<?xml version="1.0" encoding="UTF-8" standalone="no"?>
<!DOCTYPE svg PUBLIC "-//W3C//DTD SVG 1.1//EN"
 "http://www.w3.org/Graphics/SVG/1.1/DTD/svg11.dtd">
<!-- Generated by graphviz version 2.38.0 (20140413.2041)
 -->
<!-- Title: g Pages: 1 -->
<svg width="432pt" height="195pt"
 viewBox="0.00 0.00 432.00 195.37" xmlns="http://www.w3.org/2000/svg" xmlns:xlink="http://www.w3.org/1999/xlink">
<g id="graph0" class="graph" transform="scale(0.705306 0.705306) rotate(0) translate(4 273)">
<title>g</title>
<polygon fill="white" stroke="none" points="-4,4 -4,-273 608.5,-273 608.5,4 -4,4"/>
<!-- cStatistic -->
<g id="node1" class="node"><title>cStatistic</title>
<polygon fill="none" stroke="black" points="296,-269 216,-269 216,-233 296,-233 296,-269"/>
<text text-anchor="middle" x="256" y="-247.3" font-family="Arial" font-size="14.00">cStatistic</text>
</g>
<!-- cStdDev -->
<g id="node2" class="node"><title>cStdDev</title>
<polygon fill="none" stroke="black" points="293,-196 219,-196 219,-160 293,-160 293,-196"/>
<text text-anchor="middle" x="256" y="-174.3" font-family="Arial" font-size="14.00">cStdDev</text>
</g>
<!-- cStatistic&#45;&gt;cStdDev -->
<g id="edge1" class="edge"><title>cStatistic&#45;&gt;cStdDev</title>
<path fill="none" stroke="black" d="M256,-222.753C256,-213.765 256,-204.029 256,-196.029"/>
<polygon fill="black" stroke="black" points="252.5,-222.813 256,-232.813 259.5,-222.813 252.5,-222.813"/>
</g>
<!-- cWeightedStdDev -->
<g id="node3" class="node"><title>cWeightedStdDev</title>
<polygon fill="none" stroke="black" points="282,-123 142,-123 142,-87 282,-87 282,-123"/>
<text text-anchor="middle" x="212" y="-101.3" font-family="Arial" font-size="14.00">cWeightedStdDev</text>
</g>
<!-- cStdDev&#45;&gt;cWeightedStdDev -->
<g id="edge2" class="edge"><title>cStdDev&#45;&gt;cWeightedStdDev</title>
<path fill="none" stroke="black" d="M240.019,-151.212C234.204,-141.828 227.781,-131.464 222.553,-123.029"/>
<polygon fill="black" stroke="black" points="237.106,-153.156 245.349,-159.813 243.056,-149.469 237.106,-153.156"/>
</g>
<!-- cDensityEstBase -->
<g id="node4" class="node"><title>cDensityEstBase</title>
<polygon fill="none" stroke="black" points="431.5,-123 300.5,-123 300.5,-87 431.5,-87 431.5,-123"/>
<text text-anchor="middle" x="366" y="-101.3" font-family="Arial" font-size="14.00">cDensityEstBase</text>
</g>
<!-- cStdDev&#45;&gt;cDensityEstBase -->
<g id="edge3" class="edge"><title>cStdDev&#45;&gt;cDensityEstBase</title>
<path fill="none" stroke="black" d="M290.796,-154.541C306.549,-144.373 324.871,-132.547 339.486,-123.114"/>
<polygon fill="black" stroke="black" points="288.852,-151.63 282.348,-159.994 292.648,-157.511 288.852,-151.63"/>
</g>
<!-- cLongHistogram -->
<g id="node5" class="node"><title>cLongHistogram</title>
<polygon fill="none" stroke="black" points="128,-36 0,-36 0,-0 128,-0 128,-36"/>
<text text-anchor="middle" x="64" y="-14.3" font-family="Arial" font-size="14.00">cLongHistogram</text>
</g>
<!-- cDensityEstBase&#45;&gt;cLongHistogram -->
<g id="edge4" class="edge"><title>cDensityEstBase&#45;&gt;cLongHistogram</title>
<path fill="none" stroke="black" d="M295.464,-84.1471C243.65,-69.5637 173.981,-49.9549 124.654,-36.0714"/>
<polygon fill="black" stroke="black" points="294.675,-87.561 305.249,-86.9012 296.571,-80.8228 294.675,-87.561"/>
<text text-anchor="middle" x="241" y="-57.8" font-family="Arial" font-size="14.00">...</text>
</g>
<!-- cDoubleHistogram -->
<g id="node6" class="node"><title>cDoubleHistogram</title>
<polygon fill="none" stroke="black" points="289.5,-36 146.5,-36 146.5,-0 289.5,-0 289.5,-36"/>
<text text-anchor="middle" x="218" y="-14.3" font-family="Arial" font-size="14.00">cDoubleHistogram</text>
</g>
<!-- cDensityEstBase&#45;&gt;cDoubleHistogram -->
<g id="edge5" class="edge"><title>cDensityEstBase&#45;&gt;cDoubleHistogram</title>
<path fill="none" stroke="black" d="M327.224,-81.7302C302.338,-67.4374 270.519,-49.1632 247.653,-36.0302"/>
<polygon fill="black" stroke="black" points="325.635,-84.8537 336.05,-86.799 329.122,-78.7836 325.635,-84.8537"/>
<text text-anchor="middle" x="308" y="-57.8" font-family="Arial" font-size="14.00">...</text>
</g>
<!-- cVarHistogram -->
<g id="node7" class="node"><title>cVarHistogram</title>
<polygon fill="none" stroke="black" points="424.5,-36 307.5,-36 307.5,-0 424.5,-0 424.5,-36"/>
<text text-anchor="middle" x="366" y="-14.3" font-family="Arial" font-size="14.00">cVarHistogram</text>
</g>
<!-- cDensityEstBase&#45;&gt;cVarHistogram -->
<g id="edge6" class="edge"><title>cDensityEstBase&#45;&gt;cVarHistogram</title>
<path fill="none" stroke="black" d="M366,-76.7339C366,-63.4194 366,-47.806 366,-36.1754"/>
<polygon fill="black" stroke="black" points="362.5,-76.7989 366,-86.799 369.5,-76.799 362.5,-76.7989"/>
<text text-anchor="middle" x="373" y="-57.8" font-family="Arial" font-size="14.00">...</text>
</g>
<!-- cPSquare -->
<g id="node8" class="node"><title>cPSquare</title>
<polygon fill="none" stroke="black" points="523.5,-36 442.5,-36 442.5,-0 523.5,-0 523.5,-36"/>
<text text-anchor="middle" x="483" y="-14.3" font-family="Arial" font-size="14.00">cPSquare</text>
</g>
<!-- cDensityEstBase&#45;&gt;cPSquare -->
<g id="edge7" class="edge"><title>cDensityEstBase&#45;&gt;cPSquare</title>
<path fill="none" stroke="black" d="M397.927,-80.8049C417.33,-66.7089 441.685,-49.0151 459.359,-36.1754"/>
<polygon fill="black" stroke="black" points="395.71,-78.0897 389.677,-86.799 399.824,-83.753 395.71,-78.0897"/>
<text text-anchor="middle" x="439" y="-57.8" font-family="Arial" font-size="14.00">...</text>
</g>
<!-- cKSplit -->
<g id="node9" class="node"><title>cKSplit</title>
<polygon fill="none" stroke="black" points="604.5,-36 541.5,-36 541.5,-0 604.5,-0 604.5,-36"/>
<text text-anchor="middle" x="573" y="-14.3" font-family="Arial" font-size="14.00">cKSplit</text>
</g>
<!-- cDensityEstBase&#45;&gt;cKSplit -->
<g id="edge8" class="edge"><title>cDensityEstBase&#45;&gt;cKSplit</title>
<path fill="none" stroke="black" d="M417.737,-83.1693C450.764,-69.8131 494.462,-52.0343 533,-36 535.647,-34.8985 538.39,-33.7495 541.142,-32.5913"/>
<polygon fill="black" stroke="black" points="416.243,-79.9976 408.283,-86.9893 418.866,-86.4878 416.243,-79.9976"/>
<text text-anchor="middle" x="494" y="-57.8" font-family="Arial" font-size="14.00">...</text>
</g>
</g>
</svg>
