<?xml version="1.0" encoding="UTF-8" standalone="no"?>
<!DOCTYPE svg PUBLIC "-//W3C//DTD SVG 1.1//EN"
 "http://www.w3.org/Graphics/SVG/1.1/DTD/svg11.dtd">
<!-- Generated by graphviz version 2.38.0 (20140413.2041)
 -->
<!-- Title: g Pages: 1 -->
<svg width="360pt" height="113pt"
 viewBox="0.00 0.00 360.00 112.71" xmlns="http://www.w3.org/2000/svg" xmlns:xlink="http://www.w3.org/1999/xlink">
<g id="graph0" class="graph" transform="scale(0.619259 0.619259) rotate(0) translate(4 178)">
<title>g</title>
<polygon fill="white" stroke="none" points="-4,4 -4,-178 577.34,-178 577.34,4 -4,4"/>
<!-- pkdrop -->
<g id="node1" class="node"><title>pkdrop</title>
<polygon fill="none" stroke="black" points="72,-112 0,-112 0,-62 72,-62 72,-112"/>
<text text-anchor="middle" x="36" y="-83.3" font-family="Arial" font-size="14.00">pkdrop</text>
</g>
<!-- packetBytes -->
<g id="node2" class="node"><title>packetBytes</title>
<ellipse fill="none" stroke="black" cx="161.292" cy="-87" rx="53.0853" ry="53.0853"/>
<text text-anchor="middle" x="161.292" y="-83.3" font-family="Arial" font-size="14.00">packetBytes</text>
</g>
<!-- pkdrop&#45;&gt;packetBytes -->
<g id="edge1" class="edge"><title>pkdrop&#45;&gt;packetBytes</title>
<path fill="none" stroke="black" d="M72.0008,-87C79.9833,-87 88.7038,-87 97.4564,-87"/>
<polygon fill="black" stroke="black" points="97.7035,-90.5001 107.704,-87 97.7035,-83.5001 97.7035,-90.5001"/>
</g>
<!-- expr1 -->
<g id="node3" class="node"><title>expr1</title>
<ellipse fill="none" stroke="black" cx="295.962" cy="-87" rx="45.2554" ry="45.2554"/>
<text text-anchor="middle" x="295.962" y="-83.3" font-family="Arial" font-size="14.00">f(x) = x*8</text>
</g>
<!-- packetBytes&#45;&gt;expr1 -->
<g id="edge2" class="edge"><title>packetBytes&#45;&gt;expr1</title>
<path fill="none" stroke="black" d="M214.727,-87C223.069,-87 231.717,-87 240.113,-87"/>
<polygon fill="black" stroke="black" points="240.191,-90.5001 250.191,-87 240.191,-83.5001 240.191,-90.5001"/>
</g>
<!-- sum -->
<g id="node4" class="node"><title>sum</title>
<ellipse fill="none" stroke="black" cx="417.34" cy="-134" rx="36" ry="36"/>
<text text-anchor="middle" x="417.34" y="-130.3" font-family="Arial" font-size="14.00">sum</text>
</g>
<!-- expr1&#45;&gt;sum -->
<g id="edge4" class="edge"><title>expr1&#45;&gt;sum</title>
<path fill="none" stroke="black" d="M338.379,-103.306C349.954,-107.863 362.543,-112.82 374.161,-117.394"/>
<polygon fill="black" stroke="black" points="373.061,-120.722 383.648,-121.129 375.625,-114.209 373.061,-120.722"/>
</g>
<!-- sumrec -->
<g id="node5" class="node"><title>sumrec</title>
<ellipse fill="none" stroke="black" cx="417.34" cy="-40" rx="36" ry="36"/>
<ellipse fill="none" stroke="black" cx="417.34" cy="-40" rx="40" ry="40"/>
<text text-anchor="middle" x="417.34" y="-36.3" font-family="Arial" font-size="14.00">sum</text>
</g>
<!-- expr1&#45;&gt;sumrec -->
<g id="edge3" class="edge"><title>expr1&#45;&gt;sumrec</title>
<path fill="none" stroke="black" d="M338.379,-70.6936C348.691,-66.6338 359.808,-62.2569 370.326,-58.1158"/>
<polygon fill="black" stroke="black" points="371.755,-61.3151 379.777,-54.3949 369.19,-54.8017 371.755,-61.3151"/>
</g>
<!-- vector -->
<g id="node6" class="node"><title>vector</title>
<ellipse fill="none" stroke="black" cx="533.34" cy="-134" rx="36" ry="36"/>
<ellipse fill="none" stroke="black" cx="533.34" cy="-134" rx="40" ry="40"/>
<text text-anchor="middle" x="533.34" y="-130.3" font-family="Arial" font-size="14.00">vector</text>
</g>
<!-- sum&#45;&gt;vector -->
<g id="edge5" class="edge"><title>sum&#45;&gt;vector</title>
<path fill="none" stroke="black" d="M453.474,-134C462.796,-134 473.039,-134 482.967,-134"/>
<polygon fill="black" stroke="black" points="483.147,-137.5 493.147,-134 483.147,-130.5 483.147,-137.5"/>
</g>
</g>
</svg>
